<svg viewBox="0 0 1280 720">
    <g
        transform="translate(0,720) scale(0.1,-0.1)"
        fill="#fff"
        stroke="none"
    >
        <path d="M5842 5866 c-445 -871 -557 -1085 -575 -1089 -12 -3 -553 -90 -1202 -193 -649 -103 -1182 -189 -1185 -191 -2 -2 384 -392 858 -866 l862 -862 -190 -1204 c-104 -663 -188 -1207 -186 -1209 2 -2 491 245 1087 547 595 303 1085 551 1089 551 4 0 495 -248 1090 -550 595 -303 1084 -549 1086 -547 2 2 -81 546 -186 1208 l-190 1204 862 862 c474 474 860 864 858 866 -3 2 -536 88 -1185 191 -649 103 -1190 190 -1202 193 -17 4 -135 227 -575 1089 -304 596 -555 1084 -558 1084 -3 0 -254 -488 -558 -1084z" />
    </g>
</svg>